# xmcd
#
# Track frame offsets:
#	150
#	39079
#	64512
#	72616
#	113270
#	167500
#	222597
#
# Disc length: 3612 seconds
#
# Revision: 0
# Processed by: cddbd v1.4PL0 Copyright (c) Steve Scherf et al.
# Submitted via: AudioConverter v4.05 Copyright (c) Dennis Rebentrost
#
DISCID=580e1a07
DTITLE=simplicity - live @ rick's american cafe 07-10-02, east lansing, mi.
DYEAR=2002
DGENRE=Blues
TTITLE0=manastee
TTITLE1=the object
TTITLE2=fuckin' face
TTITLE3=lager, stout, and ale
TTITLE4=water
TTITLE5=broken train
TTITLE6=applause
EXTD=
EXTT0=
EXTT1=
EXTT2=
EXTT3=
EXTT4=
EXTT5=
EXTT6=
PLAYORDER=
